<svg width="132" height="24" viewBox="0 0 132 24" fill="none" xmlns="http://www.w3.org/2000/svg">
<g clip-path="url(#clip0_1_1423)">
<path d="M17.5795 19.6242C17.1811 20.4921 16.5877 21.2568 15.8453 21.8589C15.0586 22.4855 14.1575 22.9537 13.192 23.2375C12.0833 23.567 10.9311 23.7279 9.77441 23.7149C8.01328 23.7138 6.2657 23.4079 4.60931 22.8109C2.90395 22.199 1.33725 21.2554 0 20.0349L2.99538 16.4562C3.9849 17.2689 5.07406 17.9526 6.2366 18.4909C7.38 19.0016 8.62067 19.259 9.87328 19.2455C10.9261 19.2455 11.7437 19.0562 12.3262 18.6722C12.5999 18.5058 12.8246 18.2702 12.9776 17.9892C13.1306 17.7082 13.2064 17.3918 13.1973 17.0722V17.0055C13.2043 16.7057 13.1421 16.4082 13.0156 16.1362C12.8555 15.8408 12.6158 15.596 12.3236 15.4295C11.8756 15.16 11.3999 14.9392 10.9047 14.7709C10.2973 14.5522 9.51076 14.3229 8.54526 14.0829C7.47136 13.8258 6.41325 13.507 5.37619 13.1282C4.51245 12.8224 3.70124 12.3853 2.97134 11.8322C2.31393 11.3224 1.78808 10.6632 1.43757 9.90953C1.05121 9.0083 0.868739 8.03315 0.903158 7.05353V6.98686C0.887924 6.00859 1.08862 5.039 1.49101 4.14686C1.8795 3.3099 2.44248 2.56532 3.14235 1.96286C3.88665 1.32905 4.74943 0.848686 5.68081 0.549521C6.73096 0.210804 7.82915 0.044202 8.93271 0.0561903C10.5173 0.03945 12.0929 0.295651 13.5901 0.813523C15.0019 1.31555 16.3202 2.0482 17.4913 2.98153L14.8567 6.78953C13.9073 6.13425 12.8928 5.57841 11.8292 5.13086C10.8912 4.73539 9.88418 4.52875 8.86591 4.52286C7.8808 4.52286 7.14064 4.71486 6.64542 5.09886C6.41613 5.2603 6.22914 5.47446 6.10032 5.72326C5.97148 5.97203 5.90457 6.24814 5.90526 6.52819V6.60553C5.89741 6.9415 5.97073 7.27446 6.11903 7.57619C6.30284 7.89006 6.57133 8.14601 6.89393 8.31486C7.38086 8.58001 7.89627 8.78934 8.43036 8.93886C9.07968 9.1362 9.89733 9.36553 10.8887 9.62953C11.951 9.90147 12.993 10.2472 14.007 10.6642C14.8438 11.0009 15.6228 11.4661 16.3156 12.0429C16.9265 12.5561 17.4118 13.2019 17.7345 13.9309C18.0734 14.753 18.2364 15.6368 18.2128 16.5255V16.5922C18.2277 17.637 18.0115 18.6723 17.5795 19.6242Z" fill="#0D0F33"/>
<path d="M74.906 23.3842L72.7977 18.2295H63.058L60.9498 23.3842H55.782L65.6687 0.229492H70.3421L80.2287 23.3842H74.906ZM67.9265 6.3175L64.867 13.7842H70.9941L67.9265 6.3175Z" fill="#0D0F33"/>
<path d="M100.157 23.3841L95.2217 16.0268H91.2377V23.3841H86.1607V0.394775H96.694C99.4356 0.394775 101.573 1.06233 103.107 2.39744C104.641 3.73254 105.403 5.59387 105.394 7.98145V8.04545C105.394 9.90678 104.938 11.4232 104.026 12.5948C103.106 13.7756 101.868 14.6701 100.456 15.1734L106.084 23.3841H100.157ZM100.256 8.24278C100.256 7.14945 99.905 6.32811 99.2031 5.77878C98.5011 5.22945 97.5216 4.95654 96.2638 4.96011H91.2377V11.5601H96.3787C97.6258 11.5601 98.5858 11.265 99.2592 10.6748C99.5908 10.3788 99.8527 10.0132 100.026 9.60419C100.199 9.19523 100.279 8.75307 100.261 8.30945L100.256 8.24278Z" fill="#0D0F33"/>
<path d="M131.137 11.9228C130.674 12.9052 129.993 13.7697 129.146 14.4508C128.268 15.1483 127.261 15.6673 126.183 15.9788C125.002 16.3252 123.777 16.4968 122.546 16.4882H118.696V23.3842H113.619V0.394839H123.033C124.291 0.375746 125.543 0.569602 126.736 0.96817C127.765 1.31648 128.71 1.874 129.512 2.6055C130.27 3.30634 130.865 4.16359 131.257 5.11751C131.673 6.14466 131.881 7.24426 131.866 8.35218V8.41884C131.89 9.62666 131.641 10.8243 131.137 11.9228ZM126.728 8.44018C126.728 7.30239 126.36 6.43751 125.624 5.84551C124.889 5.25351 123.885 4.95839 122.613 4.96018H118.696V11.9868H122.704C123.976 11.9868 124.963 11.6535 125.665 10.9868C126.008 10.6723 126.281 10.2886 126.465 9.86116C126.649 9.4337 126.741 8.9721 126.733 8.50684L126.728 8.44018Z" fill="#0D0F33"/>
<path d="M43.723 11.8535H37.4276L41.4785 17.3682C40.9422 17.8651 40.3249 18.2673 39.6534 18.5575C38.7695 18.9345 37.8169 19.1242 36.8558 19.1149C35.8874 19.1275 34.9279 18.9319 34.0421 18.5415C33.2132 18.1685 32.4645 17.6388 31.8376 16.9815C31.2076 16.3173 30.7154 15.5351 30.3894 14.6802C30.0452 13.7897 29.8723 12.8426 29.879 11.8882V11.8242C29.8678 10.8756 30.0375 9.93357 30.3787 9.04821C30.7034 8.20618 31.1827 7.43202 31.7922 6.76554C32.4012 6.106 33.1411 5.58016 33.9646 5.22154C34.8573 4.8397 35.8206 4.64981 36.7917 4.66421C37.7544 4.65488 38.7081 4.85032 39.5893 5.23754C40.4275 5.60552 41.184 6.13653 41.8143 6.79949C42.4447 7.46248 42.9363 8.24416 43.2607 9.09888C43.5971 9.97477 43.7692 10.9049 43.7684 11.8429V11.8642H49.0698V11.8135C49.0813 10.2298 48.7732 8.65992 48.164 7.19754C47.5774 5.79629 46.7152 4.52677 45.6282 3.46421C44.5131 2.38269 43.2006 1.52454 41.7617 0.936206C38.6068 -0.311743 35.0938 -0.311743 31.9392 0.936206C30.5005 1.51673 29.1915 2.37571 28.0871 3.46362C26.9828 4.55152 26.1051 5.84685 25.5048 7.27488C24.8854 8.73378 24.5717 10.3038 24.583 11.8882V11.9549C24.5714 13.5386 24.8795 15.1085 25.4888 16.5709C26.072 17.9732 26.9336 19.2432 28.0219 20.3042C29.1375 21.3851 30.4498 22.2432 31.8884 22.8322C33.4428 23.4722 35.1101 23.7941 36.7917 23.7789C38.4783 23.7962 40.1515 23.478 41.7136 22.8429C42.6646 22.451 43.5624 21.9412 44.3857 21.3255L45.8981 23.3842H52.1934L43.723 11.8535Z" fill="#0D0F33"/>
</g>
<defs>
<clipPath id="clip0_1_1423">
<rect width="132" height="24" fill="white"/>
</clipPath>
</defs>
</svg>
