<svg width="1512" height="1341" viewBox="0 0 1512 1341" fill="none" xmlns="http://www.w3.org/2000/svg">
<path d="M1324.01 499.936H880.308L1165.81 888.85C1128.01 923.89 1084.51 952.253 1037.18 972.726C974.885 999.307 907.747 1012.69 840.006 1012.03C771.756 1012.92 704.128 999.13 641.698 971.598C583.279 945.291 530.51 907.931 486.329 861.581C441.921 814.734 407.232 759.576 384.256 699.283C359.999 636.481 347.815 569.687 348.285 502.381V497.868C347.494 430.97 359.453 364.533 383.502 302.094C406.384 242.712 440.17 188.115 483.127 141.113C526.047 94.5992 578.194 57.5151 636.237 32.2245C699.156 5.29575 767.048 -8.09619 835.486 -7.08066C903.34 -7.73889 970.554 6.04422 1032.66 33.3528C1091.74 59.3036 1145.06 96.7525 1189.48 143.507C1233.91 190.263 1268.56 245.39 1291.42 305.668C1315.13 367.439 1327.26 433.033 1327.21 499.184V500.689H1700.85V497.115C1701.66 385.423 1679.94 274.711 1637 171.579C1595.67 72.7576 1534.89 -16.7734 1458.28 -91.7089C1379.69 -167.982 1287.19 -228.502 1185.77 -269.993C963.416 -358.002 715.823 -358.002 493.485 -269.993C392.09 -229.052 299.829 -168.474 221.994 -91.7502C144.158 -15.0282 82.3024 76.3233 39.9948 177.033C-3.66113 279.92 -25.7725 390.64 -24.9778 502.381V507.083C-25.7951 618.773 -4.08294 729.486 38.8649 832.619C79.9672 931.518 140.693 1021.08 217.398 1095.91C296.025 1172.14 388.512 1232.65 489.907 1274.19C599.456 1319.32 716.972 1342.02 835.486 1340.95C954.358 1342.18 1072.29 1319.74 1182.38 1274.94C1249.41 1247.31 1312.69 1211.36 1370.71 1167.94L1477.3 1313.12H1921L1324.01 499.936Z" fill="#F1F4FF"/>
</svg>
